<svg id="Layer_1" enable-background="new 0 0 510 510" height="512" viewBox="0 0 510 510" width="512" xmlns="http://www.w3.org/2000/svg"><g><path d="m0 0v120l127.5 10 127.5-10 10-52.5-10-67.5z" fill="#61729b"/><path d="m510 0h-255v120l127.5 10 127.5-10z" fill="#47568c"/><path d="m0 120v390h255l10-187.5-10-202.5z" fill="#f3f5f9"/><path d="m255 120h255v390h-255z" fill="#e1e6f0"/><g><path d="m420 45h30v30h-30z" fill="#f77231"/><path d="m360 45h30v30h-30z" fill="#27e7f0"/><path d="m300 45h30v30h-30z" fill="#fbe000"/></g><path d="m60 420v30h195l10-15-10-15z" fill="#27e7f0"/><path d="m255 420h195v30h-195z" fill="#3ac0f1"/><path d="m60 180v30h195l10-15-10-15z" fill="#27e7f0"/><path d="m255 180h195v30h-195z" fill="#3ac0f1"/><path d="m150 240v60h-30v-60h-30v90h60v60h30v-150z" fill="#f77231"/><path d="m240 360v-90h15l10-15-10-15h-45v150h45l10-15-10-15z" fill="#f77231"/><g fill="#df4a2c"><path d="m300 240h-45v30h15v90h-15v30h45v-75z"/><path d="m390 240v60h-30v-60h-30v90h60v45h30v-135z"/></g></g></svg>